<?xml version="1.0" encoding="UTF-8"?>
<svg id="Layer_1" xmlns="http://www.w3.org/2000/svg" version="1.1" viewBox="0 0 354.38 409.32">
  <!-- Generator: Adobe Illustrator 29.5.1, SVG Export Plug-In . SVG Version: 2.1.0 Build 141)  -->
  <defs>
    <style>
      .st0 {
        fill: #cb492e;
      }

      .st1 {
        fill: #f3f7e0;
      }

      .st2, .st3 {
        isolation: isolate;
        opacity: .8;
      }

      .st4 {
        fill: #c84b27;
      }

      .st5 {
        stroke-width: .75px;
      }

      .st5, .st6, .st7, .st8, .st9 {
        stroke-miterlimit: 10;
      }

      .st5, .st7 {
        fill: #333;
        stroke: #fff;
      }

      .st6 {
        stroke-width: .25px;
      }

      .st6, .st8 {
        fill: #07b6c4;
        stroke: #231f20;
      }

      .st7 {
        stroke-width: 2px;
      }

      .st10 {
        fill: #c93d27;
      }

      .st11 {
        fill: #41b97a;
      }

      .st12 {
        fill: #5dc5c2;
      }

      .st3 {
        fill: #030504;
      }

      .st8 {
        stroke-width: 10px;
      }

      .st13 {
        fill: #04755e;
      }

      .st9 {
        stroke: #f2f6d7;
      }

      .st9, .st14 {
        fill: #f2f6d7;
      }

      .st15 {
        fill: #c1db70;
      }
    </style>
  </defs>
  <path class="st5" d="M399.98,623.04"/>
  <path class="st7" d="M353.47,658.18"/>
  <path class="st6" d="M294,675.68"/>
  <g>
    <path class="st8" d="M100.98,206.12s3.44-78.04,66.01-80.69l-.59-7.4,14.58,5.6s37.03-2.92,66.32,31.6c0,0,17.72-.64,20.56,43.2,0,0-1.45,27.21-14.27,37.95,0,0-24.68,58.47-96.77,41.05,0,0-20.33-5.46-39.19-21,0,0-28.27-16.36-16.65-50.29v-.02Z"/>
    <path class="st11" d="M214.98,268.66s-27.67-4.35-36.07-10.73h-6.02s10.76,11.77,34.84,14.7c0,0,3.5.73,7.25-3.97Z"/>
    <path class="st11" d="M154.51,225.83s-19.84-29.26-9.22-62.97c0,0-19.26,37.22.43,64.25,0,0,3.82.05,8.8-1.28h0Z"/>
    <path class="st3" d="M105.31,208.6s4.3,30.53,65.64,13.64l13.26-3.87,2.97-1.43-5.32,5.42s-34.91,21.83-45.46,25.47c0,0-3.43,3.3,4.46.85,0,0,62.79-31.11,79.93-50.05l14.49-13.55-11.01,22.15c-.31.63-.69,1.23-1.12,1.78-3.4,4.38-19.18,24.47-26.04,29.52-7.65,5.64-18.07,14.53-18.07,14.53,0,0-2.05,2.77,5.09-.22l28.17-22.25,19.29,4.49s-9.34,10.79-31.13,16.11c0,0-18.38,6.82-27.49,6.74,0,0-12.83,10.04-24.53,11.61-11.69,1.57-62.16-29.04-43.13-60.94h0Z"/>
    <path class="st2" d="M245.17,160.11s4.32,11.26-3.12,18.75c0,0-16.46,43.96-24.98,46.39,0,0,1.64,3.44,36.55,11.19,0,0,34.34-81.33-8.44-76.33h0Z"/>
    <path class="st12" d="M162.21,265.13l17.59,11.65s17.13,1.6,27.31-4.45c0,0-28.12-6.28-34.14-14.39l-10.76,7.19h0Z"/>
    <path class="st12" d="M131.74,227.52l13.97-.41s-13.69-17.86-5.56-55.95c0,0-16.03,13.87-8.41,56.35h0Z"/>
    <polygon class="st4" points="228.14 219.01 236.16 209.97 242.43 219.75 228.14 219.01"/>
    <polygon class="st1" points="167.63 143.34 191.86 129.74 165.75 119.71 167.63 143.34"/>
    <path class="st14" d="M175.7,168.84s16.06-10.54,23.49-11.56c0,0,16.48-17.85,7.38-1.72,0,0,27.06-13.81,3.3,5.49,0,0-39.36,16.95-34.16,7.79h0Z"/>
    <path class="st14" d="M184.32,169.58s6.09,12.86,14.32,11.73c0,0,9.12-.54,7.12-19.18l-21.44,7.45h0Z"/>
    <path class="st15" d="M187.72,168.86s3.87,9.14,10.13,8.95c0,0,8.19-1.02,5.62-14.22l-15.75,5.27Z"/>
    <path class="st13" d="M190.41,168.1s3.44,5.81,6.79,5.7c0,0,5.13.13,2.94-9.04l-9.73,3.34Z"/>
    <path class="st9" d="M123.04,181.58s7.78,1.72,16.34-2.02l12.49-6.51s9.19-3.87,3.72,3.25l-26.45,19.23s-10.7-.43-12.81-4.75c0,0,7.76-2.47,9.42-5.08,0,0-3.43-2.7-2.71-4.11h0Z"/>
    <path class="st14" d="M140.1,186.35s2.68,10.21,12.16,10.97c0,0,9.81,1.65,9.17-12.38,0,0-1.1-8.07-4.96-10.27l-16.37,11.69h0Z"/>
    <path class="st15" d="M142.78,184.89s1.77,8.33,9.05,9.9c0,0,9.25-.61,7.73-10.09,0,0-2.01-7.77-4.71-8.45l-12.07,8.64Z"/>
    <path class="st13" d="M146.24,182.37s1.58,5.96,5.36,6.9c0,0,4.98,1.81,4.69-3.93,0,0-.61-4.82-3.83-7.4l-6.22,4.44h0Z"/>
    <path class="st0" d="M162.64,205.91l2.74-.78s.4,6.15,11.95-1.19l10.81-4.9.16-2.38,7.13-3.1,6.4-5.62-3.86,8.14s-13.15,12.1-22.76,14.06c0,0-10.89,7.28-12.56-4.24h-.01Z"/>
    <polygon class="st10" points="188.5 198.64 197.19 206.43 196.94 195.61 188.5 198.64"/>
  </g>
</svg>